<?xml version="1.0" encoding="UTF-8"?>
<svg width="200px" height="200px" viewBox="0 0 200 200" version="1.1" xmlns="http://www.w3.org/2000/svg" xmlns:xlink="http://www.w3.org/1999/xlink">
    <title>LinkedIn</title>
    <g id="LinkedIn" stroke="none" stroke-width="1" fill="none" fill-rule="evenodd">
        <g id="linkedin-icon-1" transform="translate(50.000000, 49.000000)" fill="#000000" fill-rule="nonzero">
            <path d="M0,11.1003861 C0,7.88281853 1.1261583,5.22837838 3.37837838,3.13706564 C5.63059846,1.04565637 8.55859073,0 12.1621622,0 C15.7014479,0 18.5649614,1.02953668 20.7528958,3.08880309 C23.0051158,5.21235521 24.1312741,7.97934363 24.1312741,11.3899614 C24.1312741,14.4787645 23.0373552,17.0527027 20.8494208,19.1119691 C18.5972008,21.2355212 15.6370656,22.2972973 11.969112,22.2972973 L11.8725869,22.2972973 C8.33330116,22.2972973 5.46978764,21.2355212 3.28185328,19.1119691 C1.09391892,16.988417 0,14.3178571 0,11.1003861 Z M1.25482625,95.5598456 L1.25482625,31.0810811 L22.6833977,31.0810811 L22.6833977,95.5598456 L1.25482625,95.5598456 Z M34.5559846,95.5598456 L55.984556,95.5598456 L55.984556,59.5559846 C55.984556,57.303668 56.2419884,55.5662162 56.7567568,54.3436293 C57.6576255,52.155695 59.0250965,50.3055985 60.8590734,48.7934363 C62.6930502,47.2811776 64.9935328,46.5250965 67.7606178,46.5250965 C74.9678571,46.5250965 78.5714286,51.3834942 78.5714286,61.1003861 L78.5714286,95.5598456 L100,95.5598456 L100,58.5907336 C100,49.0668919 97.7477799,41.8436293 93.2432432,36.9208494 C88.7387066,31.9980695 82.78639,29.5366795 75.3861004,29.5366795 C67.0849421,29.5366795 60.6177606,33.1081081 55.984556,40.2509653 L55.984556,40.4440154 L55.8880309,40.4440154 L55.984556,40.2509653 L55.984556,31.0810811 L34.5559846,31.0810811 C34.6846525,33.140251 34.7490347,39.5430502 34.7490347,50.2895753 C34.7490347,61.0360039 34.6846525,76.1260618 34.5559846,95.5598456 Z" id="Shape"></path>
        </g>
    </g>
</svg>